PathFileType	4	(X/Y/Z)	C:\Users\WrightLab\Desktop\Jo\P4V127.trc
DataRate	CameraRate	NumFrames	NumMarkers	Units	OrigDataRate	OrigDataStartFrame	OrigNumFrames
100.00	100.00	       51	19	mm	100.00	1	       642
Frame#	Time	Headset_Front			Headset_Back			Headset_Left			Headset_Right			Left_Shoulder			Right_Shoulder			Sternum			C7			Left Elbow			Right Elbow			Left Wrist			Right Wrist			Left ASIS			Right ASIS			S2			Left Knee			Right Knee			Left Ankle			Right Ankle			
		X1	Y1	Z1	X2	Y2	Z2	X3	Y3	Z3	X4	Y4	Z4	X5	Y5	Z5	X6	Y6	Z6	X7	Y7	Z7	X8	Y8	Z8	X9	Y9	Z9	X10	Y10	Z10	X11	Y11	Z11	X12	Y12	Z12	X13	Y13	Z13	X14	Y14	Z14	X15	Y15	Z15	X16	Y16	Z16	X17	Y17	Z17	X18	Y18	Z18	X19	Y19	Z19	

1	0.000																															54.93419	912.25110	-1516.15564	-321.87772	891.04456	-1210.47461													-298.15454	525.97882	-1340.55884							
2	0.010																															56.29597	912.44055	-1512.59033	-322.73694	891.01855	-1210.93518													-300.78079	527.05243	-1342.40479							
3	0.020																															57.68795	912.90155	-1504.29639	-324.52545	890.28381	-1211.74475													-302.56927	527.08575	-1343.89807							
4	0.030																															59.24339	911.72015	-1504.29492	-325.08826	888.57538	-1213.26758													-303.76093	526.89587	-1344.86096							
5	0.040																															60.40424	911.26031	-1503.39819	-326.34811	887.20483	-1215.18250													-305.37686	526.88428	-1346.65454							
6	0.050																															64.04645	910.50806	-1499.22681	-326.74634	886.03961	-1218.19812													-307.45059	527.25970	-1348.30457							
7	0.060																															65.34378	911.11090	-1494.75830	-327.09683	885.62762	-1218.40356													-309.01724	527.17883	-1349.14465							
8	0.070																															66.93835	908.88495	-1495.87769	-327.57068	885.44409	-1218.74548													-310.08823	527.76886	-1350.49011							
9	0.080																															69.55054	908.05200	-1492.38049	-327.97620	885.25531	-1219.03650										-15.77201	520.76270	-1506.82446	-310.54779	527.48877	-1351.53064							
10	0.090																															72.48805	907.19684	-1489.80200	-328.14395	884.00812	-1223.87183										-14.38780	520.28809	-1504.57715	-310.77396	527.63287	-1353.17480							
11	0.100																															73.87991	905.05957	-1490.51306	-328.36194	883.97070	-1224.03186										-14.00690	521.06097	-1501.34192	-311.11148	528.22552	-1354.79761							
12	0.110																															76.97403	904.01331	-1487.41187	-327.88745	884.60187	-1223.06311										-12.98779	519.85443	-1501.15308	-311.38937	528.76544	-1355.50452							
13	0.120																															79.15941	904.24292	-1482.36682	-328.56534	884.73401	-1224.29956										-12.01501	518.64136	-1501.37244	-311.45862	528.64453	-1357.41833							
14	0.130																															80.96329	902.50159	-1482.99854	-327.82629	884.24884	-1227.64893										-10.52758	516.17963	-1503.60327	-311.38406	529.02979	-1359.08276							
15	0.140																															83.92998	900.39105	-1480.38489	-327.78317	885.05133	-1229.00769										-10.29924	516.62817	-1501.65442	-311.40009	529.00250	-1361.63428							
16	0.150																															85.57008	902.29437	-1472.63257	-328.13083	885.08997	-1230.16492										-10.13172	516.93213	-1500.22070	-311.27441	529.19525	-1362.81702							
17	0.160																															89.41895	898.18579	-1480.08459	-326.53339	885.62158	-1232.37476										-9.92252	517.41846	-1498.44531	-311.26059	529.92346	-1364.27588							
18	0.170																															89.24562	898.48651	-1470.21448	-327.23337	887.58380	-1234.99609										-8.50217	514.57153	-1501.21301	-311.70337	529.34521	-1366.94336							
19	0.180																															92.06229	897.25037	-1468.09229	-327.00644	889.40045	-1237.35059										-8.37706	514.58704	-1500.10986	-312.03815	529.97485	-1367.97046							
20	0.190																															94.52579	895.50452	-1465.81665	-326.30746	889.70306	-1239.14709										-6.18495	512.79968	-1506.26086	-311.82852	530.13513	-1369.64978							
21	0.200																															97.30492	894.95428	-1464.74927	-325.93918	890.61652	-1241.44580										-5.48361	512.13452	-1508.04053	-312.05029	530.56329	-1372.95190							
22	0.210																															100.52381	894.24115	-1463.57227	-326.13565	893.18341	-1243.37744										-4.96899	511.20966	-1509.20679	-311.83591	531.14063	-1374.42212							
23	0.220																															103.11327	893.24487	-1462.62781	-326.01489	894.15564	-1246.08740										-3.67956	510.47797	-1512.36133	-311.83466	531.69562	-1376.68896							
24	0.230																															105.77186	891.62579	-1460.41321	-324.94666	895.09583	-1248.69604										-1.89217	509.72464	-1516.19458	-309.59894	531.12946	-1378.55029							
25	0.240																									110.22022	1159.20532	-1621.20776				108.87388	890.23920	-1457.99268	-325.17938	897.62555	-1250.83240										0.30024	508.88049	-1521.16772	-309.23593	531.19788	-1380.85767							
26	0.250																									114.72622	1159.20605	-1618.88440				110.58318	889.92194	-1457.80774	-324.52695	898.50171	-1254.89185										1.47152	509.68689	-1522.36780	-308.24390	532.15228	-1383.12183							
27	0.260																									119.99104	1158.93542	-1615.75317				113.90227	889.19708	-1457.24622	-324.44257	899.72217	-1256.67847										2.38804	510.31683	-1523.89307	-307.57245	532.73108	-1385.32581							
28	0.270																									122.83498	1160.08899	-1615.89172				116.04980	888.84949	-1455.78149	-324.50525	901.86444	-1260.97217										4.58933	509.73730	-1527.63672	-306.73697	532.77380	-1387.08765							
29	0.280																									127.64170	1159.19861	-1611.61560				118.87587	888.18719	-1454.53381	-325.23578	903.12000	-1263.23218										6.10876	510.54071	-1527.44263	-306.55521	532.70306	-1389.51587							
30	0.290																									130.25858	1160.29468	-1611.91748				120.78429	888.23169	-1454.73047	-324.98837	904.26953	-1264.82532										8.69444	509.30777	-1527.69922	-305.40796	531.60272	-1395.40247							
31	0.300																									135.09424	1159.89441	-1609.08691				122.93121	888.09045	-1453.88855	-324.76901	904.50793	-1268.25659										10.57388	510.00021	-1528.16919	-304.97580	531.43964	-1399.61365							
32	0.310																									137.30890	1160.31519	-1608.60315				125.61679	887.69202	-1452.39526	-325.51822	906.63739	-1271.41724										12.92941	509.33484	-1531.80005	-305.08417	531.33099	-1400.29504							
33	0.320																									141.97516	1159.83142	-1606.03088				127.46375	887.72235	-1452.37854	-325.70752	907.20532	-1274.04797										13.14480	510.04675	-1529.93726	-305.25980	531.15204	-1401.39807							
34	0.330																									143.99396	1160.19006	-1605.74695				129.08568	887.82867	-1452.33728	-326.06891	907.24713	-1277.52100										13.88145	510.19189	-1530.94995	-303.83929	530.31488	-1409.05371							
35	0.340																									148.50134	1159.61218	-1603.48083				131.74339	884.90991	-1460.05005	-326.00565	907.26471	-1280.32080										15.83046	508.38406	-1534.74805	-303.93494	531.00385	-1410.90942							
36	0.350																									150.33650	1159.88879	-1603.48792				133.65414	887.66766	-1450.37781	-326.04938	906.99316	-1283.75317										18.38711	506.26880	-1540.72009	-304.09009	531.11340	-1411.95386							
37	0.360																									153.78479	1159.96997	-1602.83801				135.09125	888.11316	-1450.31274	-326.05045	906.83105	-1286.54468										18.73788	507.21213	-1537.62708	-304.01895	532.24780	-1412.82874							
38	0.370																									156.34734	1159.52771	-1601.27112				136.65298	888.38452	-1450.03284	-326.30518	906.01343	-1289.39441										19.11088	508.20343	-1534.33618	-304.06323	532.54254	-1413.19055							
39	0.380																									158.98871	1160.24133	-1602.16211				138.55003	888.85486	-1449.99927	-325.95685	905.45367	-1294.00061										19.50266	509.20053	-1530.87317	-304.26178	534.69824	-1413.49548							
40	0.390																									160.78976	1160.82678	-1602.94995				140.58528	889.00476	-1448.83789	-325.45041	904.39697	-1297.14063										20.45382	509.86069	-1529.98999	-304.37134	534.71271	-1414.21667							
41	0.400																									162.88882	1161.44836	-1603.82996				142.20569	889.57532	-1448.12524	-326.97247	903.93585	-1299.77368										21.63202	508.51910	-1531.50000	-304.62491	534.46283	-1415.81445							
42	0.410																									165.30162	1160.61218	-1601.72546				143.47316	890.33435	-1447.93628	-326.62619	902.68597	-1303.07898										22.53311	508.21664	-1532.63550	-305.80920	535.73413	-1414.24451							
43	0.420																									167.57381	1161.09399	-1602.38147				145.35669	890.69391	-1447.70276	-326.27124	902.09637	-1305.84619										23.06388	507.63583	-1532.01233	-306.14227	535.98279	-1416.04639							
44	0.430																									169.37898	1161.04163	-1602.18372				146.27696	891.53839	-1448.03149	-326.59326	901.72430	-1308.58411										24.54923	506.30847	-1535.84497	-306.38589	535.59412	-1417.54297							
45	0.440																									171.24454	1161.61584	-1603.10449				147.71133	891.69275	-1447.34326	-326.67368	900.75946	-1312.69775										24.62580	506.38452	-1535.14661	-305.99973	534.55310	-1422.15173							
46	0.450																									172.60577	1162.13013	-1603.91101				148.79320	892.29150	-1447.19690	-326.43359	900.11072	-1315.54272										25.31026	506.38138	-1536.64172	-306.09088	534.70630	-1424.51807							
47	0.460																									174.21848	1161.58777	-1602.69214				150.04402	892.59088	-1446.56763	-326.30252	899.46814	-1320.38220										25.38840	506.63104	-1535.95203	-306.37485	534.36792	-1426.29382							
48	0.470																									176.28677	1161.48193	-1602.07007				151.12045	892.48248	-1445.80103	-328.50946	898.67487	-1323.08057										25.43359	506.78519	-1535.55469	-307.05103	535.15387	-1426.54089							
49	0.480																									177.81189	1161.22729	-1601.44202				152.21893	892.98694	-1446.40173	-326.74628	897.48578	-1326.73340										25.50698	507.02350	-1534.90747	-307.53604	535.70386	-1427.97864							
50	0.490																									178.94653	1161.70813	-1602.22766				153.19139	892.96362	-1446.39429	-328.27631	896.28387	-1330.37915										25.57476	507.28726	-1534.31592	-307.83051	535.40179	-1429.82971							
51	0.500																									179.64708	1161.77954	-1602.45764				153.52847	892.97913	-1446.62524	-329.50180	896.25433	-1333.62708										25.64772	507.45758	-1533.66309	-307.44052	535.16443	-1432.71094							
